<?xml version="1.0" encoding="utf-8"?>
<!-- Generator: Adobe Illustrator 24.0.2, SVG Export Plug-In . SVG Version: 6.00 Build 0)  -->
<svg version="1.1" id="logo" xmlns="http://www.w3.org/2000/svg" xmlns:xlink="http://www.w3.org/1999/xlink" x="0px" y="0px"
	 viewBox="0 0 32 32" style="enable-background:new 0 0 32 32;" xml:space="preserve">
<style type="text/css">
	.st0{fill:#FFFFFF;}
	.st1{fill:#303030;}
</style>
<g>
	<path class="st0" d="M23.7,0H8.3C3.7,0,0,3.7,0,8.3v15.5C0,28.3,3.7,32,8.3,32h15.5c4.6,0,8.3-3.7,8.3-8.3V8.3
		C32,3.7,28.3,0,23.7,0z"/>
	<g>
		<g id="XMLID_2_">
			<g>
				<path class="st1" d="M19.1,19c0.1,0.3,0.4,0.7,0.5,0.9c0.1,0.4,0.1,0.7,0.1,1.1c0,0.5-0.1,1.1-0.3,1.5c-0.1,0.3-0.3,0.5-0.4,0.7
					c-0.3,0.4-0.5,0.7-0.9,0.9c-0.3,0.1-0.7,0.4-0.9,0.4c-0.4,0.1-0.7,0.1-1.1,0.1c-0.5,0-1.1-0.1-1.5-0.3c-0.7-0.3-1.2-0.8-1.6-1.3
					l0,0c-0.1-0.3-0.4-0.7-0.5-0.9c-0.1-0.4-0.1-0.7-0.1-1.1c0-0.5,0.1-1.1,0.3-1.5c0.3-0.7,0.8-1.2,1.3-1.6
					c0.3-0.3,0.7-0.4,0.9-0.5c0.4-0.1,0.8-0.1,1.1-0.1c0.5,0,1.1,0.1,1.5,0.3C18.1,17.9,18.7,18.3,19.1,19z"/>
			</g>
		</g>
		<g id="XMLID_1_">
			<g>
				<path class="st1" d="M29.3,20.7c0,0.8-0.1,1.6-0.3,2.4h-6.3c0-0.1,0-0.1,0.1-0.3c0.3-0.7,0.3-1.5,0.3-2.1c0-1.1-0.1-2-0.5-2.8
					c-0.5-1.3-1.5-2.4-2.7-3.2c-0.5-0.4-1.2-0.7-1.9-0.9c-0.7-0.3-1.5-0.3-2.1-0.3c-1.1,0-2,0.3-2.8,0.5c-1.3,0.5-2.4,1.5-3.2,2.7
					c-0.4,0.5-0.7,1.2-0.9,1.9c-0.3,0.7-0.3,1.5-0.3,2.1c0,0.8,0.1,1.6,0.4,2.4H3c-0.1-0.8-0.3-1.6-0.3-2.4c0-1.9,0.4-3.6,1.1-5.2
					c1.1-2.4,2.7-4.4,4.8-5.9s4.7-2.3,7.5-2.3c1.9,0,3.6,0.4,5.2,1.1c2.4,1.1,4.4,2.7,5.9,4.8S29.3,17.9,29.3,20.7z"/>
			</g>
		</g>
	</g>
</g>
</svg>
